<svg xmlns="http://www.w3.org/2000/svg" aria-hidden="true">
    <defs>
        <symbol id="phone" viewBox="0 0 640 640">
            <path d="M224.2 89C216.3 70.1 195.7 60.1 176.1 65.4L170.6 66.9C106 84.5 50.8 147.1
         66.9 223.3C104 398.3 241.7 536 416.7 573.1C493 589.3 555.5 
        534 573.1 469.4L574.6 463.9C580 444.2 569.9 423.6 551.1 415.8L453.8 375.3C437.3
         368.4 418.2 373.2 406.8 387.1L368.2 434.3C297.9 399.4 241.3

         341 208.8 269.3L253 233.3C266.9 222 271.6 202.9 264.8 186.3L224.2 89z" />
        </symbol>
        <symbol id="mail" viewBox="0 0 640 640">
            <path d="M568.4 37.7C578.2 34.2 589 36.7 596.4 44C603.8 51.3 606.2 62.2 602.7 72L424.7 568.9C419.7
         582.8 406.6 592 391.9 592C377.7 592 364.9 
        583.4 359.6 570.3L295.4 412.3C290.9 401.3 292.9 388.7 300.6 379.7L395.1 267.3C400.2 261.2
         399.8 252.3 394.2 246.7C388.6 241.1 379.6 240.7 
        373.6 245.8L261.2 340.1C252.1 347.7 239.6 349.7 228.6 345.3L70.1 280.8C57 275.5 48.4 262.7
         48.4 248.5C48.4 233.8 57.6 220.7 71.5 215.7L568.
        4 37.7z" />
        </symbol>
        <symbol id="name" viewBox="0 0 640 640">
            <path d="M376 88C376 57.1 350.9 32 320 32C289.1 32 264 57.1 264 88C264 118.9 289.1 144 320 144C350.9 144 376
 118.9
 376 88zM400 300.7L446.3 363.1C456.8 377.3 476.9 380.3 491.1 369.7C505.3 359.1 508.3 339.1 497.7 324.9L427.2 
 229.9C402 196 362.3 176 320 176C277.7
  176 238 196 212.8 229.9L142.3 324.9C131.8 339.1 134.7 359.1 148.9 369.7C163.1 380.3 183.1 377.3 193.7 363.
  1L240 300.7L240 576C240 593.7 254.3 608
   272 608C289.7 608 304 593.7 304 576L304 416C304 407.2 311.2 400 320 400C328.8 400 336 407.2 336 416L336
    576C336 593.7 350.3 608 368 608C385.7 60
   8 400 593.7 400 576L400 300.7z" />
        </symbol>
        <symbol id="check" viewBox="0 0 640 640">
            <path d="M530.8 134.1C545.1 144.5 548.3 164.5 537.9 178.8L281.9 530.8C276.4 538.4 267.9 543.1 
    258.5 543.9C249.1 544.7 240 541.2 233.4 534.6L105.4 406.6C92.9 394.1 92.9 373.8 105.4 361.3C117.9 
    348.8 138.2 348.8 150.7 361.3L252.2 462.8L486.2 141.1C496.6 126.8 516.6 123.6 530.9 134z" />
        </symbol>
        <symbol id="warning" viewBox="0 0 640 640">
            <path
                d="M320 64C334.7 64 348.2 72.1 355.2 85L571.2 485C577.9 497.4 577.6 512.4 570.4 524.5C563.2 536.6 550.1 544 536 544L104 
    544C89.9 544 76.8 536.6 69.6 524.5C62.4 512.4 62.1 497.4 68.8 485L284.8 85C291.8 72.1 305.3 64 320 64zM320 416C302.3 416 288 430.3
     288 448C288 465.7 302.3 480 320 480C337.7 480 352 465.7 352 448C352 430.3 337.7 416 320 416zM320 224C301.8 224 287.3 239.5 
    288.6 257.7L296 361.7C296.9 374.2 307.4 384 319.9 384C332.5 384 342.9 374.3 343.8 361.7L351.2 257.7C352.5 239.5 338.1 224 319.8 224z" />
        </symbol>
        <symbol id="error" viewBox="0 0 640 640">
            <path
                d="M320 576C178.6 576 64 461.4 64 320C64 178.6 178.6 64 320 64C461.4 64 576 178.6 576 320C576 461.4 461.4 576 320 576zM320 
             384C302.3 384 288 398.3 288 416C288 433.7 302.3 448 320 448C337.7 448 352 433.7 352 416C352 398.3 337.7 384 320 384zM320 192C301.8 
             192 287.3 207.5 288.6
             225.7L296 329.7C296.9 342.3 307.4 352 319.9 352C332.5 352 342.9 342.3 343.8 329.7L351.2 225.7C352.5 207.5 338.1 192 319.8 192z" />
        </symbol>
    </defs>
</svg>